<?xml version="1.0" encoding="utf-8"?>
<!-- Generator: Adobe Illustrator 24.3.0, SVG Export Plug-In . SVG Version: 6.00 Build 0)  -->
<svg version="1.1" id="Layer_1" xmlns="http://www.w3.org/2000/svg" xmlns:xlink="http://www.w3.org/1999/xlink" x="0px" y="0px"
	 viewBox="0 0 91.2 84.8" style="enable-background:new 0 0 91.2 84.8;" xml:space="preserve">
<style type="text/css">
	.st0{fill:#D5AB29;}
</style>
<g>
	<polygon class="st0" points="43.9,79.1 43.9,62.6 37.5,70.9 	"/>
	<polygon class="st0" points="47.9,79.1 54.4,70.9 47.9,62.6 	"/>
	<polygon class="st0" points="50.1,82.9 63.8,82.9 56.9,74.1 	"/>
	<polygon class="st0" points="28.1,82.9 41.8,82.9 34.9,74.1 	"/>
	<polygon class="st0" points="65.9,79.1 65.9,62.6 59.5,70.9 	"/>
	<polygon class="st0" points="63.8,58.9 50.1,58.9 56.9,67.6 	"/>
	<polygon class="st0" points="25.9,79.1 32.4,70.9 25.9,62.6 	"/>
	<path class="st0" d="M89.6,39.8l-14-22c-0.2-0.3-0.5-0.6-0.8-0.7l-28-14c-0.6-0.3-1.2-0.3-1.8,0l-28,14c-0.3,0.2-0.6,0.4-0.8,0.7
		l-14,22c-0.6,0.9-0.3,2.2,0.6,2.8c0.3,0.2,0.7,0.3,1.1,0.3h6v38c0,1.1,0.9,2,2,2c0,0,0,0,0,0h10v-26c0-1.1,0.9-2,2-2c0,0,0,0,0,0
		h44c1.1,0,2,0.9,2,2c0,0,0,0,0,0v26h10c1.1,0,2-0.9,2-2c0,0,0,0,0,0v-38h6c1.1,0,2-0.9,2-2C89.9,40.5,89.8,40.1,89.6,39.8
		L89.6,39.8z M53.9,40.9c0,1.1-0.9,2-2,2c0,0,0,0,0,0h-12c-1.1,0-2-0.9-2-2c0,0,0,0,0,0v-12c0-1.1,0.9-2,2-2c0,0,0,0,0,0h12
		c1.1,0,2,0.9,2,2c0,0,0,0,0,0V40.9z"/>
	<rect x="41.9" y="30.9" class="st0" width="8" height="8"/>
	<polygon class="st0" points="41.8,58.9 28.1,58.9 34.9,67.6 	"/>
</g>
</svg>
