<?xml version="1.0" encoding="utf-8"?>
<!-- Generator: Adobe Illustrator 24.3.0, SVG Export Plug-In . SVG Version: 6.00 Build 0)  -->
<svg version="1.1" id="Layer_1" xmlns="http://www.w3.org/2000/svg" xmlns:xlink="http://www.w3.org/1999/xlink" x="0px" y="0px"
	 viewBox="0 0 500.7 84.8" style="enable-background:new 0 0 500.7 84.8;" xml:space="preserve">
<style type="text/css">
	.st0{fill:#D5AB29;}
</style>
<g>
	<polygon class="st0" points="43.9,78.5 43.9,62.1 37.5,70.3 	"/>
	<polygon class="st0" points="47.9,78.5 54.4,70.3 47.9,62.1 	"/>
	<polygon class="st0" points="50.1,82.3 63.8,82.3 56.9,73.6 	"/>
	<polygon class="st0" points="28.1,82.3 41.8,82.3 34.9,73.6 	"/>
	<polygon class="st0" points="65.9,78.5 65.9,62.1 59.5,70.3 	"/>
	<polygon class="st0" points="63.8,58.3 50.1,58.3 56.9,67.1 	"/>
	<polygon class="st0" points="25.9,78.5 32.4,70.3 25.9,62.1 	"/>
	<path class="st0" d="M89.6,39.3l-14-22c-0.2-0.3-0.5-0.6-0.8-0.7l-28-14c-0.6-0.3-1.2-0.3-1.8,0l-28,14c-0.3,0.2-0.6,0.4-0.8,0.7
		l-14,22c-0.6,0.9-0.3,2.2,0.6,2.8c0.3,0.2,0.7,0.3,1.1,0.3h6v38c0,1.1,0.9,2,2,2c0,0,0,0,0,0h10v-26c0-1.1,0.9-2,2-2c0,0,0,0,0,0
		h44c1.1,0,2,0.9,2,2c0,0,0,0,0,0v26h10c1.1,0,2-0.9,2-2c0,0,0,0,0,0v-38h6c1.1,0,2-0.9,2-2C89.9,39.9,89.8,39.6,89.6,39.3
		L89.6,39.3z M53.9,40.3c0,1.1-0.9,2-2,2c0,0,0,0,0,0h-12c-1.1,0-2-0.9-2-2c0,0,0,0,0,0v-12c0-1.1,0.9-2,2-2c0,0,0,0,0,0h12
		c1.1,0,2,0.9,2,2c0,0,0,0,0,0V40.3z"/>
	<rect x="41.9" y="30.3" class="st0" width="8" height="8"/>
	<polygon class="st0" points="41.8,58.3 28.1,58.3 34.9,67.1 	"/>
</g>
<g>
	<polygon class="st0" points="146.1,78.5 146.1,62.1 139.7,70.3 	"/>
	<polygon class="st0" points="150.1,78.5 156.6,70.3 150.1,62.1 	"/>
	<polygon class="st0" points="152.2,82.3 166,82.3 159.1,73.6 	"/>
	<polygon class="st0" points="130.2,82.3 144,82.3 137.1,73.6 	"/>
	<polygon class="st0" points="168.1,78.5 168.1,62.1 161.7,70.3 	"/>
	<polygon class="st0" points="166,58.3 152.2,58.3 159.1,67.1 	"/>
	<polygon class="st0" points="128.1,78.5 134.6,70.3 128.1,62.1 	"/>
	<path class="st0" d="M191.8,39.3l-14-22c-0.2-0.3-0.5-0.6-0.8-0.7l-28-14c-0.6-0.3-1.2-0.3-1.8,0l-28,14c-0.3,0.2-0.6,0.4-0.8,0.7
		l-14,22c-0.6,0.9-0.3,2.2,0.6,2.8c0.3,0.2,0.7,0.3,1.1,0.3h6v38c0,1.1,0.9,2,2,2c0,0,0,0,0,0h10v-26c0-1.1,0.9-2,2-2c0,0,0,0,0,0
		h44c1.1,0,2,0.9,2,2c0,0,0,0,0,0v26h10c1.1,0,2-0.9,2-2c0,0,0,0,0,0v-38h6c1.1,0,2-0.9,2-2C192.1,39.9,192,39.6,191.8,39.3
		L191.8,39.3z M156.1,40.3c0,1.1-0.9,2-2,2c0,0,0,0,0,0h-12c-1.1,0-2-0.9-2-2c0,0,0,0,0,0v-12c0-1.1,0.9-2,2-2c0,0,0,0,0,0h12
		c1.1,0,2,0.9,2,2c0,0,0,0,0,0V40.3z"/>
	<rect x="144.1" y="30.3" class="st0" width="8" height="8"/>
	<polygon class="st0" points="144,58.3 130.2,58.3 137.1,67.1 	"/>
</g>
<g>
	<polygon class="st0" points="248.3,78.5 248.3,62.1 241.9,70.3 	"/>
	<polygon class="st0" points="252.3,78.5 258.8,70.3 252.3,62.1 	"/>
	<polygon class="st0" points="254.4,82.3 268.2,82.3 261.3,73.6 	"/>
	<polygon class="st0" points="232.4,82.3 246.2,82.3 239.3,73.6 	"/>
	<polygon class="st0" points="270.3,78.5 270.3,62.1 263.9,70.3 	"/>
	<polygon class="st0" points="268.2,58.3 254.4,58.3 261.3,67.1 	"/>
	<polygon class="st0" points="230.3,78.5 236.8,70.3 230.3,62.1 	"/>
	<path class="st0" d="M294,39.3l-14-22c-0.2-0.3-0.5-0.6-0.8-0.7l-28-14c-0.6-0.3-1.2-0.3-1.8,0l-28,14c-0.3,0.2-0.6,0.4-0.8,0.7
		l-14,22c-0.6,0.9-0.3,2.2,0.6,2.8c0.3,0.2,0.7,0.3,1.1,0.3h6v38c0,1.1,0.9,2,2,2c0,0,0,0,0,0h10v-26c0-1.1,0.9-2,2-2c0,0,0,0,0,0
		h44c1.1,0,2,0.9,2,2c0,0,0,0,0,0v26h10c1.1,0,2-0.9,2-2c0,0,0,0,0,0v-38h6c1.1,0,2-0.9,2-2C294.3,39.9,294.2,39.6,294,39.3
		L294,39.3z M258.3,40.3c0,1.1-0.9,2-2,2c0,0,0,0,0,0h-12c-1.1,0-2-0.9-2-2c0,0,0,0,0,0v-12c0-1.1,0.9-2,2-2c0,0,0,0,0,0h12
		c1.1,0,2,0.9,2,2c0,0,0,0,0,0V40.3z"/>
	<rect x="246.3" y="30.3" class="st0" width="8" height="8"/>
	<polygon class="st0" points="246.2,58.3 232.4,58.3 239.3,67.1 	"/>
</g>
<g>
	<polygon class="st0" points="350.5,78.5 350.5,62.1 344,70.3 	"/>
	<polygon class="st0" points="354.5,78.5 360.9,70.3 354.5,62.1 	"/>
	<polygon class="st0" points="356.6,82.3 370.4,82.3 363.5,73.6 	"/>
	<polygon class="st0" points="334.6,82.3 348.4,82.3 341.5,73.6 	"/>
	<polygon class="st0" points="372.5,78.5 372.5,62.1 366,70.3 	"/>
	<polygon class="st0" points="370.4,58.3 356.6,58.3 363.5,67.1 	"/>
	<polygon class="st0" points="332.5,78.5 338.9,70.3 332.5,62.1 	"/>
	<path class="st0" d="M396.2,39.3l-14-22c-0.2-0.3-0.5-0.6-0.8-0.7l-28-14c-0.6-0.3-1.2-0.3-1.8,0l-28,14c-0.3,0.2-0.6,0.4-0.8,0.7
		l-14,22c-0.6,0.9-0.3,2.2,0.6,2.8c0.3,0.2,0.7,0.3,1.1,0.3h6v38c0,1.1,0.9,2,2,2c0,0,0,0,0,0h10v-26c0-1.1,0.9-2,2-2c0,0,0,0,0,0
		h44c1.1,0,2,0.9,2,2c0,0,0,0,0,0v26h10c1.1,0,2-0.9,2-2c0,0,0,0,0,0v-38h6c1.1,0,2-0.9,2-2C396.5,39.9,396.4,39.6,396.2,39.3
		L396.2,39.3z M360.5,40.3c0,1.1-0.9,2-2,2c0,0,0,0,0,0h-12c-1.1,0-2-0.9-2-2c0,0,0,0,0,0v-12c0-1.1,0.9-2,2-2c0,0,0,0,0,0h12
		c1.1,0,2,0.9,2,2c0,0,0,0,0,0V40.3z"/>
	<rect x="348.5" y="30.3" class="st0" width="8" height="8"/>
	<polygon class="st0" points="348.4,58.3 334.6,58.3 341.5,67.1 	"/>
</g>
<g>
	<polygon class="st0" points="452.7,78.5 452.7,62.1 446.2,70.3 	"/>
	<polygon class="st0" points="456.7,78.5 463.1,70.3 456.7,62.1 	"/>
	<polygon class="st0" points="458.8,82.3 472.6,82.3 465.7,73.6 	"/>
	<polygon class="st0" points="436.8,82.3 450.6,82.3 443.7,73.6 	"/>
	<polygon class="st0" points="474.7,78.5 474.7,62.1 468.2,70.3 	"/>
	<polygon class="st0" points="472.6,58.3 458.8,58.3 465.7,67.1 	"/>
	<polygon class="st0" points="434.7,78.5 441.1,70.3 434.7,62.1 	"/>
	<path class="st0" d="M498.4,39.3l-14-22c-0.2-0.3-0.5-0.6-0.8-0.7l-28-14c-0.6-0.3-1.2-0.3-1.8,0l-28,14c-0.3,0.2-0.6,0.4-0.8,0.7
		l-14,22c-0.6,0.9-0.3,2.2,0.6,2.8c0.3,0.2,0.7,0.3,1.1,0.3h6v38c0,1.1,0.9,2,2,2c0,0,0,0,0,0h10v-26c0-1.1,0.9-2,2-2c0,0,0,0,0,0
		h44c1.1,0,2,0.9,2,2c0,0,0,0,0,0v26h10c1.1,0,2-0.9,2-2c0,0,0,0,0,0v-38h6c1.1,0,2-0.9,2-2C498.7,39.9,498.6,39.6,498.4,39.3
		L498.4,39.3z M462.7,40.3c0,1.1-0.9,2-2,2c0,0,0,0,0,0h-12c-1.1,0-2-0.9-2-2c0,0,0,0,0,0v-12c0-1.1,0.9-2,2-2c0,0,0,0,0,0h12
		c1.1,0,2,0.9,2,2c0,0,0,0,0,0V40.3z"/>
	<rect x="450.7" y="30.3" class="st0" width="8" height="8"/>
	<polygon class="st0" points="450.6,58.3 436.8,58.3 443.7,67.1 	"/>
</g>
</svg>
