<svg id="Layer_1" data-name="Layer 1" xmlns="http://www.w3.org/2000/svg" viewBox="0 0 109.56 26.61"><defs><style>.cls-1{fill:#666767;}</style></defs><path class="cls-1" d="M2.56,8.46l1.73-.12H9.22v2.2H2.57V8.46ZM4.15,7.12c0-2.44,1.12-4.23,3.91-4.23a6.05,6.05,0,0,1,2.16.41L9.69,5.36a3.32,3.32,0,0,0-1.28-.28c-1,0-1.5.62-1.5,2V20.13H4.14v-13Z"/><path class="cls-1" d="M10.05,17c0-2.53,2.09-3.84,6.93-4.36,0-1.27-.55-2.32-2.14-2.32a6.52,6.52,0,0,0-3.31,1.16l-1-1.84a9.18,9.18,0,0,1,4.84-1.55c3,0,4.4,1.81,4.4,5.1v7H17.48l-.21-1.31h-.08a5.73,5.73,0,0,1-3.66,1.59A3.29,3.29,0,0,1,10.05,17ZM17,17V14.32c-3.2.4-4.26,1.24-4.26,2.43s.71,1.5,1.7,1.5A3.7,3.7,0,0,0,17,17Z"/><path class="cls-1" d="M22.47,8.34h2.27l.21,2.1H25a4,4,0,0,1,3.35-2.39,3,3,0,0,1,1.33.24l-.48,2.4A3.84,3.84,0,0,0,28,10.5c-.94,0-2.07.64-2.78,2.44v7.19H22.47Z"/><path class="cls-1" d="M30.82,8.34h2.27L33.3,10h.08A5.08,5.08,0,0,1,37,8.05a3.17,3.17,0,0,1,3.25,2.11C41.38,9,42.54,8.05,44,8.05c2.49,0,3.64,1.71,3.64,4.68v7.39H44.91v-7c0-1.94-.58-2.67-1.81-2.67a3.63,3.63,0,0,0-2.47,1.47v8.24H37.87v-7c0-1.94-.58-2.67-1.81-2.67a3.67,3.67,0,0,0-2.47,1.47v8.24H30.82Z"/><path class="cls-1" d="M49.67,14.24c0-3.93,2.67-6.19,5.61-6.19s5.61,2.27,5.61,6.19-2.67,6.17-5.61,6.17S49.67,18.15,49.67,14.24Zm8.37,0c0-2.36-1-3.94-2.77-3.94s-2.76,1.57-2.76,3.94,1,3.92,2.76,3.92S58,16.6,58,14.24Z"/><path class="cls-1" d="M63,8.34H65.3l.21,1.26h.08a5.73,5.73,0,0,1,3.55-1.55c3,0,4.64,2.36,4.64,6,0,4-2.41,6.37-5,6.37a4.68,4.68,0,0,1-3-1.3l.09,2V24.8H63.05V8.34Zm7.9,5.74c0-2.35-.77-3.74-2.56-3.74a3.74,3.74,0,0,0-2.57,1.32v5.49a3.67,3.67,0,0,0,2.36,1C69.73,18.13,70.93,16.75,70.93,14.08Z"/><path class="cls-1" d="M75.18,14.24c0-3.93,2.67-6.19,5.61-6.19s5.61,2.27,5.61,6.19-2.67,6.17-5.61,6.17S75.18,18.15,75.18,14.24Zm8.38,0c0-2.36-1-3.94-2.77-3.94S78,11.87,78,14.24s1,3.92,2.76,3.92S83.56,16.6,83.56,14.24Z"/><path class="cls-1" d="M88.54,17.09V3.17h2.77V17.23c0,.68.31.92.59.92a1.56,1.56,0,0,0,.43,0l.35,2.06a4,4,0,0,1-1.46.24C89.26,20.42,88.54,19.15,88.54,17.09Z"/><path class="cls-1" d="M94.13,4.71a1.72,1.72,0,1,1,1.71,1.56A1.58,1.58,0,0,1,94.13,4.71Zm.31,3.63h2.77V20.13H94.44Z"/><path class="cls-1" d="M99,18.77,100.25,17a5.19,5.19,0,0,0,3.25,1.32c1.29,0,1.89-.61,1.89-1.41,0-1-1.28-1.43-2.54-1.91-1.55-.58-3.31-1.47-3.31-3.44s1.65-3.52,4.29-3.52a6.39,6.39,0,0,1,3.92,1.41l-1.27,1.7a4.46,4.46,0,0,0-2.58-1c-1.19,0-1.75.57-1.75,1.31,0,.93,1.19,1.29,2.47,1.76,1.59.59,3.38,1.36,3.38,3.56,0,2-1.6,3.66-4.58,3.66A7.37,7.37,0,0,1,99,18.77Z"/></svg>