<svg id="Layer_1" data-name="Layer 1" xmlns="http://www.w3.org/2000/svg" xmlns:xlink="http://www.w3.org/1999/xlink" viewBox="0 0 31.66 26.65"><defs><style>.cls-1{fill:url(#linear-gradient);}.cls-2{fill:#666767;}</style><linearGradient id="linear-gradient" x1="2" y1="11.66" x2="33.66" y2="11.66" gradientTransform="matrix(1, 0, 0, -1, 0, 22)" gradientUnits="userSpaceOnUse"><stop offset="0" stop-color="#aebe37"/><stop offset="1" stop-color="#9b9d40"/></linearGradient></defs><path class="cls-1" d="M2,12.75c-.09-7,7-10.27,15.69-10.39s15.87,2.93,16,10-7,5.68-15.75,5.8S2.1,19.78,2,12.75Z" transform="translate(-2 -2.35)"/><path class="cls-2" d="M10.42,18.32c0-1.53,3.35-3.5,7.41-3.54s7.38,1.84,7.4,3.38c0,0-3.3,0-7.36.06Z" transform="translate(-2 -2.35)"/><path class="cls-2" d="M22,23.51a6.83,6.83,0,0,1,.4-5.5H13.3a6.83,6.83,0,0,1,.4,5.5c-1.83,5-1.21,5.5-1.21,5.5H23.22S23.84,28.5,22,23.51Z" transform="translate(-2 -2.35)"/></svg>