<?xml version="1.0" encoding="utf-8"?>
<!-- Generator: Adobe Illustrator 24.2.3, SVG Export Plug-In . SVG Version: 6.00 Build 0)  -->
<svg version="1.1" xmlns="http://www.w3.org/2000/svg" xmlns:xlink="http://www.w3.org/1999/xlink" x="0px" y="0px"
	 viewBox="0 0 149 36" style="enable-background:new 0 0 149 36;" xml:space="preserve">
<style type="text/css">
	.st0{fill:url(#SVGID_1_);}
	.st1{fill:#666667;}
</style>
<g id="Layer_1">
</g>
<g id="bean">
	<linearGradient id="SVGID_1_" gradientUnits="userSpaceOnUse" x1="3.5689" y1="10.8921" x2="35.2217" y2="10.8921">
		<stop  offset="0" style="stop-color:#AEBE36"/>
		<stop  offset="1" style="stop-color:#9C9D40"/>
	</linearGradient>
	<path class="st0" d="M3.57,13.3C3.47,6.27,10.52,3.03,19.26,2.9s15.87,2.93,15.97,9.96c0.1,7.03-7.01,5.68-15.75,5.8
		C10.73,18.78,3.67,20.32,3.57,13.3z"/>
	<path class="st1" d="M11.99,18.86c-0.02-1.53,3.35-3.5,7.41-3.54c4.06-0.05,7.38,1.84,7.4,3.38c0,0-3.3,0.01-7.36,0.06
		S11.99,18.86,11.99,18.86z"/>
	<g>
		<g>
			<path class="st1" d="M40.55,17.88l1.73-0.12h4.93v2.2h-6.65V17.88z M42.14,16.54c0-2.44,1.12-4.23,3.91-4.23
				c0.85,0,1.63,0.2,2.16,0.41l-0.53,2.06c-0.42-0.18-0.87-0.28-1.28-0.28c-0.98,0-1.5,0.62-1.5,1.99v13.06h-2.77V16.54z"/>
			<path class="st1" d="M48.04,26.38c0-2.53,2.09-3.84,6.93-4.36c-0.04-1.27-0.55-2.32-2.14-2.32c-1.17,0-2.28,0.53-3.31,1.16
				l-1.02-1.84c1.3-0.82,2.97-1.55,4.84-1.55c2.95,0,4.4,1.81,4.4,5.1v6.98h-2.27l-0.21-1.31h-0.08c-1.06,0.9-2.27,1.59-3.66,1.59
				C49.46,29.84,48.04,28.43,48.04,26.38z M54.97,26.39v-2.65c-3.2,0.4-4.26,1.24-4.26,2.43c0,1.04,0.71,1.5,1.7,1.5
				C53.37,27.67,54.1,27.2,54.97,26.39z"/>
			<path class="st1" d="M60.46,17.76h2.27l0.21,2.1h0.08c0.84-1.54,2.09-2.39,3.35-2.39c0.6,0,0.98,0.08,1.33,0.24l-0.48,2.4
				c-0.41-0.12-0.72-0.19-1.21-0.19c-0.94,0-2.07,0.64-2.78,2.44v7.19h-2.77V17.76z"/>
			<path class="st1" d="M68.81,17.76h2.27l0.21,1.61h0.08c1-1.04,2.14-1.9,3.62-1.9c1.73,0,2.71,0.79,3.25,2.11
				c1.13-1.2,2.29-2.11,3.79-2.11c2.49,0,3.64,1.71,3.64,4.68v7.39H82.9v-7.04c0-1.94-0.58-2.67-1.81-2.67
				c-0.75,0-1.56,0.48-2.47,1.47v8.24h-2.76v-7.04c0-1.94-0.58-2.67-1.81-2.67c-0.73,0-1.56,0.48-2.47,1.47v8.24h-2.77V17.76z"/>
			<path class="st1" d="M87.66,23.66c0-3.93,2.67-6.19,5.61-6.19c2.94,0,5.61,2.27,5.61,6.19c0,3.91-2.67,6.17-5.61,6.17
				C90.33,29.84,87.66,27.57,87.66,23.66z M96.03,23.66c0-2.36-1.04-3.94-2.77-3.94c-1.73,0-2.76,1.57-2.76,3.94
				c0,2.36,1.04,3.92,2.76,3.92C95,27.58,96.03,26.02,96.03,23.66z"/>
			<path class="st1" d="M101.02,17.76h2.27l0.21,1.26h0.08c0.99-0.85,2.26-1.55,3.55-1.55c2.95,0,4.64,2.36,4.64,6
				c0,4.03-2.41,6.37-5.03,6.37c-1.05,0-2.07-0.47-3.03-1.3l0.09,1.96v3.72h-2.76V17.76z M108.92,23.5c0-2.35-0.77-3.74-2.56-3.74
				c-0.85,0-1.66,0.43-2.57,1.32v5.49c0.84,0.72,1.68,0.98,2.36,0.98C107.72,27.55,108.92,26.17,108.92,23.5z"/>
			<path class="st1" d="M113.17,23.66c0-3.93,2.67-6.19,5.61-6.19c2.94,0,5.61,2.27,5.61,6.19c0,3.91-2.67,6.17-5.61,6.17
				C115.84,29.84,113.17,27.57,113.17,23.66z M121.55,23.66c0-2.36-1.04-3.94-2.77-3.94c-1.73,0-2.76,1.57-2.76,3.94
				c0,2.36,1.04,3.92,2.76,3.92C120.51,27.58,121.55,26.02,121.55,23.66z"/>
			<path class="st1" d="M126.53,26.51V12.59h2.77v14.06c0,0.68,0.31,0.92,0.59,0.92c0.12,0,0.22,0,0.43-0.05l0.35,2.06
				c-0.34,0.13-0.8,0.24-1.46,0.24C127.25,29.84,126.53,28.57,126.53,26.51z"/>
			<path class="st1" d="M132.12,14.13c0-0.93,0.73-1.56,1.71-1.56c0.98,0,1.71,0.63,1.71,1.56c0,0.91-0.73,1.56-1.71,1.56
				C132.84,15.69,132.12,15.04,132.12,14.13z M132.43,17.76h2.77v11.79h-2.77V17.76z"/>
			<path class="st1" d="M136.95,28.19l1.29-1.76c1.05,0.82,2.06,1.32,3.25,1.32c1.29,0,1.89-0.61,1.89-1.41
				c0-0.99-1.28-1.43-2.54-1.91c-1.55-0.58-3.31-1.47-3.31-3.44c0-2.04,1.65-3.52,4.29-3.52c1.64,0,2.96,0.67,3.92,1.41l-1.27,1.7
				c-0.83-0.6-1.66-1.03-2.58-1.03c-1.19,0-1.75,0.57-1.75,1.31c0,0.93,1.19,1.29,2.47,1.76c1.59,0.59,3.38,1.36,3.38,3.56
				c0,2.03-1.6,3.66-4.58,3.66C139.8,29.84,138.1,29.14,136.95,28.19z"/>
		</g>
	</g>
	<path class="st1" d="M23.58,24.05c-1.1-3,0.4-5.5,0.4-5.5h-1.33H16.2h-1.33c0,0,1.5,2.5,0.4,5.5c-1.83,4.99-1.21,5.5-1.21,5.5h2.06
		h6.61h2.06C24.79,29.55,25.41,29.04,23.58,24.05z"/>
</g>
</svg>
